<svg id="svg" version="1.1" xmlns="http://www.w3.org/2000/svg" xmlns:xlink="http://www.w3.org/1999/xlink" width="400"
    height="400" viewBox="0, 0, 400,400">
    <g id="svgg">
        <path id="path0"
            d="M346.482 109.576 C 350.224 131.342,347.196 157.369,339.269 171.570 C 334.570 179.988,329.307 184.570,313.073 194.377 C 287.737 209.683,273.405 222.205,264.917 236.454 C 256.861 249.978,255.214 260.757,258.267 279.961 C 260.740 295.512,269.661 314.030,280.750 326.627 C 283.270 329.490,283.335 329.440,282.464 325.316 C 280.384 315.474,282.261 302.521,286.948 294.373 C 293.294 283.340,300.338 276.549,318.117 264.326 C 339.094 249.904,351.704 236.869,358.572 222.507 C 371.477 195.522,368.874 159.542,351.047 118.460 C 347.808 110.996,346.182 107.832,346.482 109.576 M341.362 256.734 C 299.441 285.889,288.945 298.511,291.383 316.835 C 293.076 329.554,297.035 331.925,310.843 328.491 C 330.399 323.626,336.483 312.111,346.499 261.007 C 347.287 256.989,348.020 253.391,348.128 253.011 C 348.452 251.876,347.953 252.151,341.362 256.734 "
            stroke="none" fill="#149494" fill-rule="evenodd"></path>
        <path id="path1"
            d="M189.050 35.429 C 189.759 35.517,190.825 35.515,191.419 35.425 C 192.012 35.335,191.431 35.263,190.128 35.265 C 188.825 35.268,188.340 35.341,189.050 35.429 M204.837 35.429 C 205.543 35.516,206.698 35.516,207.404 35.429 C 208.110 35.341,207.532 35.270,206.120 35.270 C 204.709 35.270,204.131 35.341,204.837 35.429 M183.712 35.810 C 184.092 35.910,184.714 35.910,185.094 35.810 C 185.474 35.711,185.163 35.630,184.403 35.630 C 183.643 35.630,183.332 35.711,183.712 35.810 M211.949 35.817 C 212.441 35.912,213.151 35.908,213.529 35.809 C 213.906 35.710,213.504 35.633,212.636 35.638 C 211.767 35.642,211.458 35.723,211.949 35.817 M225.772 58.726 C 226.482 58.814,227.548 58.813,228.141 58.722 C 228.735 58.632,228.154 58.560,226.851 58.563 C 225.548 58.565,225.062 58.639,225.772 58.726 M243.541 58.726 C 244.251 58.814,245.317 58.813,245.910 58.722 C 246.504 58.632,245.923 58.560,244.620 58.563 C 243.317 58.565,242.831 58.639,243.541 58.726 M220.434 59.107 C 220.814 59.207,221.436 59.207,221.816 59.107 C 222.196 59.008,221.885 58.927,221.125 58.927 C 220.365 58.927,220.054 59.008,220.434 59.107 M249.462 59.114 C 249.953 59.209,250.664 59.205,251.041 59.106 C 251.419 59.008,251.017 58.930,250.148 58.935 C 249.279 58.939,248.970 59.020,249.462 59.114 M87.833 77.493 L 86.673 78.776 87.957 77.616 C 89.153 76.535,89.421 76.209,89.116 76.209 C 89.048 76.209,88.471 76.787,87.833 77.493 M81.335 83.613 L 77.591 87.463 81.441 83.720 C 83.559 81.661,85.291 79.928,85.291 79.870 C 85.291 79.583,84.812 80.037,81.335 83.613 M320.632 81.071 C 320.632 81.139,321.209 81.717,321.915 82.355 L 323.198 83.514 322.039 82.231 C 320.958 81.035,320.632 80.766,320.632 81.071 M324.847 84.995 C 325.020 85.267,325.171 85.666,325.185 85.884 C 325.198 86.101,325.423 86.234,325.684 86.180 C 325.946 86.125,326.160 86.252,326.160 86.462 C 326.160 86.671,326.560 87.049,327.048 87.300 C 327.645 87.607,327.424 87.222,326.376 86.129 C 324.796 84.481,324.276 84.096,324.847 84.995 M75.003 90.326 L 73.643 91.807 75.123 90.446 C 76.502 89.179,76.786 88.845,76.484 88.845 C 76.418 88.845,75.752 89.511,75.003 90.326 M128.511 99.210 L 126.950 100.888 128.628 99.328 C 129.551 98.469,130.306 97.714,130.306 97.649 C 130.306 97.351,129.962 97.650,128.511 99.210 M118.639 109.082 L 117.078 110.760 118.756 109.199 C 120.317 107.748,120.616 107.404,120.317 107.404 C 120.253 107.404,119.497 108.159,118.639 109.082 M347.977 129.319 C 347.982 130.188,348.062 130.496,348.157 130.005 C 348.251 129.514,348.248 128.803,348.149 128.426 C 348.050 128.048,347.973 128.450,347.977 129.319 M190.106 143.837 C 193.012 145.483,193.432 146.927,192.891 153.406 C 192.246 161.127,194.841 166.506,201.723 171.712 C 206.006 174.952,206.115 174.966,203.567 171.962 C 199.793 167.514,197.337 161.283,197.988 157.812 C 198.763 153.680,203.364 151.892,205.778 154.784 L 206.928 156.162 206.665 154.784 C 205.964 151.105,204.003 149.504,200.544 149.785 L 198.323 149.965 197.860 148.421 C 196.867 145.105,193.926 142.936,190.437 142.948 L 188.549 142.955 190.106 143.837 M200.197 143.611 C 198.476 144.226,198.099 146.532,199.563 147.492 C 201.397 148.693,203.717 147.196,203.202 145.144 C 203.031 144.465,201.347 143.182,200.870 143.368 C 200.826 143.385,200.523 143.494,200.197 143.611 M212.944 143.739 C 211.273 144.412,211.265 146.948,212.932 147.707 C 215.388 148.826,217.450 145.987,215.438 144.256 C 214.261 143.244,214.205 143.232,212.944 143.739 M220.631 144.154 C 218.986 145.022,217.321 147.256,216.955 149.085 L 216.716 150.280 214.244 150.123 C 211.311 149.936,209.227 151.318,208.501 153.932 C 207.906 156.075,208.017 156.724,208.771 155.509 C 210.806 152.229,215.702 153.542,216.812 157.665 C 217.687 160.915,215.698 166.898,212.401 170.935 C 211.444 172.106,210.306 173.526,209.872 174.090 L 209.082 175.116 210.430 174.158 C 219.951 167.395,223.412 160.825,221.971 152.250 C 221.220 147.780,222.362 145.014,225.469 143.779 C 226.306 143.446,226.126 143.386,224.284 143.379 C 222.869 143.374,221.596 143.644,220.631 144.154 M227.451 151.903 C 225.684 152.820,224.284 154.923,224.284 156.662 C 224.284 161.993,230.620 164.481,234.100 160.516 C 238.124 155.934,232.851 149.103,227.451 151.903 M182.154 152.401 C 178.727 154.491,178.408 158.784,181.479 161.481 C 184.352 164.003,189.112 162.611,190.341 158.888 C 191.925 154.087,186.473 149.767,182.154 152.401 M250.482 152.456 C 242.891 153.724,238.329 157.957,236.190 165.717 C 235.448 168.410,235.448 168.411,234.111 168.302 C 222.353 167.342,217.908 170.025,216.165 179.134 C 215.348 183.404,215.463 183.706,216.892 181.057 C 220.833 173.749,230.578 174.750,234.769 182.893 C 239.440 191.970,233.665 208.255,220.801 222.281 C 216.504 226.966,216.927 226.819,224.841 220.879 C 237.669 211.249,242.880 204.778,246.107 194.472 C 248.254 187.616,248.840 177.785,247.445 172.039 C 245.287 163.152,249.476 154.603,256.781 152.982 C 260.065 152.253,254.485 151.787,250.482 152.456 M158.442 152.681 C 157.720 152.833,158.064 153.123,160.290 154.237 C 167.237 157.712,169.610 163.374,167.865 172.307 C 164.087 191.643,170.983 206.639,190.299 221.094 C 197.538 226.512,198.888 227.197,195.595 223.781 C 182.022 209.702,175.714 192.674,180.525 183.102 C 184.568 175.057,194.252 174.192,198.503 181.495 L 199.850 183.810 199.602 182.034 C 198.029 170.794,192.368 166.772,181.043 168.847 C 179.866 169.063,179.849 169.039,179.153 166.368 C 176.681 156.873,167.461 150.780,158.442 152.681 M33.655 185.982 C 33.655 186.742,33.737 187.053,33.836 186.673 C 33.935 186.293,33.935 185.671,33.836 185.291 C 33.737 184.911,33.655 185.222,33.655 185.982 M33.295 192.300 C 33.295 193.712,33.367 194.289,33.454 193.583 C 33.542 192.878,33.542 191.723,33.454 191.017 C 33.367 190.311,33.295 190.888,33.295 192.300 M82.240 192.695 C 82.240 193.672,82.317 194.072,82.411 193.583 C 82.505 193.095,82.505 192.295,82.411 191.807 C 82.317 191.318,82.240 191.718,82.240 192.695 M188.934 193.895 C 188.767 194.165,189.065 194.214,189.799 194.037 C 191.312 193.674,191.455 193.485,190.217 193.485 C 189.651 193.485,189.074 193.670,188.934 193.895 M223.995 194.163 C 224.616 194.257,224.979 194.504,224.836 194.736 C 224.682 194.985,224.910 194.969,225.421 194.695 C 226.646 194.039,226.460 193.872,224.580 193.939 C 223.390 193.981,223.220 194.046,223.995 194.163 M258.137 195.582 C 258.411 198.015,257.502 199.546,254.914 201.006 C 248.933 204.381,246.152 210.229,246.753 218.164 L 246.992 221.323 247.487 218.464 C 248.327 213.614,250.657 209.251,253.254 207.668 C 256.292 205.815,259.726 207.434,259.311 210.525 C 259.105 212.064,259.119 212.087,259.859 211.418 C 261.794 209.667,261.685 206.477,259.625 204.541 L 258.701 203.673 259.657 201.877 C 260.823 199.683,260.853 198.575,259.803 196.405 C 258.543 193.804,257.901 193.486,258.137 195.582 M212.302 194.997 C 211.943 195.394,211.649 195.877,211.649 196.072 C 211.649 196.266,211.917 196.041,212.245 195.573 C 212.573 195.104,213.328 194.647,213.923 194.557 L 215.005 194.393 213.980 194.334 C 213.417 194.301,212.661 194.599,212.302 194.997 M155.479 196.283 C 154.155 198.492,154.077 200.516,155.238 202.580 L 156.082 204.083 154.843 205.586 C 153.069 207.738,153.296 210.709,155.367 212.427 C 155.931 212.895,155.955 212.838,155.593 211.886 C 154.949 210.193,155.951 208.247,157.718 207.759 C 161.776 206.638,165.728 210.973,167.216 218.176 C 168.147 222.685,168.308 222.374,168.142 216.387 C 167.939 209.079,165.457 204.409,160.393 201.812 C 157.920 200.544,156.989 199.236,156.764 196.713 L 156.564 194.472 155.479 196.283 M202.915 196.557 C 202.784 197.342,202.842 197.710,203.061 197.491 C 203.260 197.292,203.357 196.709,203.276 196.196 C 203.152 195.405,203.096 195.461,202.915 196.557 M216.046 196.720 C 216.015 197.326,215.615 198.048,215.115 198.398 C 214.632 198.736,214.427 199.013,214.658 199.013 C 215.456 199.013,216.453 197.511,216.275 196.577 C 216.114 195.731,216.095 195.743,216.046 196.720 M81.884 202.172 C 81.884 204.452,81.949 205.385,82.029 204.245 C 82.108 203.105,82.108 201.239,82.029 200.099 C 81.949 198.959,81.884 199.891,81.884 202.172 M193.203 200.000 C 193.206 201.086,193.282 201.483,193.373 200.883 C 193.464 200.283,193.462 199.394,193.368 198.909 C 193.274 198.423,193.200 198.914,193.203 200.000 M197.928 200.197 C 198.016 200.523,198.518 200.823,199.044 200.863 C 199.798 200.920,199.833 200.890,199.210 200.718 C 198.776 200.599,198.274 200.299,198.094 200.053 C 197.879 199.757,197.822 199.806,197.928 200.197 M150.275 201.213 C 149.934 201.554,149.654 202.252,149.654 202.764 C 149.654 204.721,152.038 205.657,153.345 204.214 C 154.658 202.762,153.748 200.592,151.826 200.592 C 151.314 200.592,150.616 200.872,150.275 201.213 M212.932 200.864 C 213.312 200.964,213.934 200.964,214.314 200.864 C 214.694 200.765,214.383 200.684,213.623 200.684 C 212.863 200.684,212.552 200.765,212.932 200.864 M261.797 201.777 C 260.846 202.728,260.831 202.929,261.622 204.058 C 262.717 205.621,264.956 204.983,264.956 203.108 C 264.956 201.204,263.136 200.437,261.797 201.777 M205.413 202.767 C 205.568 203.006,205.867 203.636,206.079 204.167 C 206.323 204.778,206.474 204.895,206.490 204.486 C 206.504 204.130,206.204 203.500,205.824 203.085 C 205.444 202.671,205.259 202.528,205.413 202.767 M222.050 206.318 C 222.052 208.055,222.121 208.717,222.205 207.788 C 222.288 206.859,222.287 205.438,222.202 204.629 C 222.117 203.821,222.049 204.580,222.050 206.318 M199.580 205.429 L 198.421 206.713 199.801 205.528 C 200.560 204.877,201.256 204.299,201.347 204.245 C 201.439 204.191,201.340 204.146,201.127 204.146 C 200.914 204.146,200.218 204.724,199.580 205.429 M211.352 204.418 C 211.732 204.518,212.354 204.518,212.734 204.418 C 213.115 204.319,212.804 204.238,212.043 204.238 C 211.283 204.238,210.972 204.319,211.352 204.418 M213.658 204.640 C 213.749 204.694,214.445 205.271,215.204 205.923 L 216.584 207.108 215.425 205.824 C 214.787 205.118,214.091 204.541,213.878 204.541 C 213.665 204.541,213.566 204.585,213.658 204.640 M33.295 207.700 C 33.295 209.112,33.367 209.689,33.454 208.983 C 33.542 208.277,33.542 207.122,33.454 206.417 C 33.367 205.711,33.295 206.288,33.295 207.700 M208.101 206.417 C 208.105 207.207,208.203 207.351,208.459 206.946 C 208.653 206.640,208.720 206.151,208.608 205.860 C 208.288 205.025,208.094 205.237,208.101 206.417 M192.787 208.490 C 192.787 209.250,192.868 209.561,192.967 209.181 C 193.066 208.801,193.066 208.179,192.967 207.799 C 192.868 207.419,192.787 207.730,192.787 208.490 M82.240 211.649 C 82.240 212.626,82.317 213.026,82.411 212.537 C 82.505 212.048,82.505 211.249,82.411 210.760 C 82.317 210.271,82.240 210.671,82.240 211.649 M33.663 213.820 C 33.668 214.689,33.748 214.998,33.843 214.507 C 33.937 214.016,33.934 213.305,33.835 212.927 C 33.736 212.550,33.659 212.952,33.663 213.820 M173.617 214.709 C 173.522 214.872,173.588 215.360,173.763 215.795 C 174.040 216.484,174.084 216.446,174.108 215.499 C 174.136 214.427,173.951 214.131,173.617 214.709 M34.050 217.966 C 34.050 218.727,34.131 219.038,34.231 218.657 C 34.330 218.277,34.330 217.655,34.231 217.275 C 34.131 216.895,34.050 217.206,34.050 217.966 M198.223 219.743 C 198.960 220.503,199.651 221.125,199.760 221.125 C 199.869 221.125,199.355 220.503,198.618 219.743 C 197.881 218.983,197.190 218.361,197.081 218.361 C 196.972 218.361,197.486 218.983,198.223 219.743 M242.561 220.533 C 242.564 221.619,242.641 222.016,242.732 221.416 C 242.822 220.816,242.820 219.927,242.726 219.442 C 242.632 218.956,242.558 219.447,242.561 220.533 M203.358 222.835 C 203.900 223.450,204.287 224.072,204.219 224.217 C 204.150 224.363,204.489 224.744,204.971 225.064 C 206.292 225.941,205.406 224.449,203.688 222.902 C 202.387 221.731,202.383 221.731,203.358 222.835 M232.478 223.378 C 232.966 223.472,233.766 223.472,234.255 223.378 C 234.743 223.284,234.344 223.207,233.366 223.207 C 232.389 223.207,231.989 223.284,232.478 223.378 M209.809 224.745 C 209.219 225.360,208.938 225.864,209.183 225.864 C 209.429 225.864,209.878 225.510,210.181 225.077 C 210.484 224.644,210.824 224.381,210.937 224.494 C 211.049 224.606,211.341 224.457,211.586 224.162 C 212.479 223.086,210.903 223.603,209.809 224.745 M197.038 229.615 C 197.775 230.375,198.467 230.997,198.575 230.997 C 198.684 230.997,198.170 230.375,197.433 229.615 C 196.697 228.855,196.005 228.233,195.896 228.233 C 195.788 228.233,196.302 228.855,197.038 229.615 M187.266 231.664 C 187.646 231.763,188.268 231.763,188.648 231.664 C 189.028 231.565,188.717 231.484,187.957 231.484 C 187.196 231.484,186.885 231.565,187.266 231.664 M177.000 235.538 C 177.004 236.407,177.085 236.716,177.180 236.224 C 177.274 235.733,177.270 235.022,177.172 234.645 C 177.073 234.267,176.995 234.669,177.000 235.538 M215.992 237.907 C 215.033 238.885,214.337 239.684,214.446 239.684 C 214.554 239.684,215.428 238.885,216.387 237.907 C 217.346 236.930,218.042 236.130,217.933 236.130 C 217.825 236.130,216.951 236.930,215.992 237.907 M342.538 244.521 L 339.388 247.779 342.646 244.629 C 345.671 241.704,346.083 241.264,345.795 241.264 C 345.736 241.264,344.270 242.730,342.538 244.521 M297.912 280.059 L 295.953 282.132 298.026 280.173 C 299.952 278.352,300.280 277.986,299.985 277.986 C 299.923 277.986,298.990 278.919,297.912 280.059 M302.454 286.969 L 300.296 289.240 302.567 287.082 C 304.676 285.076,305.018 284.699,304.725 284.699 C 304.663 284.699,303.641 285.721,302.454 286.969 M115.696 291.930 C 115.696 291.998,116.273 292.576,116.979 293.213 L 118.263 294.373 117.103 293.090 C 116.022 291.894,115.696 291.625,115.696 291.930 M119.645 296.259 C 119.645 296.318,121.022 297.695,122.705 299.319 L 125.765 302.270 122.813 299.210 C 120.072 296.368,119.645 295.970,119.645 296.259 M127.542 303.776 C 127.542 303.844,128.119 304.422,128.825 305.059 L 130.109 306.219 128.949 304.936 C 127.868 303.740,127.542 303.471,127.542 303.776 M81.145 316.288 C 83.962 319.112,86.356 321.422,86.464 321.422 C 86.573 321.422,84.357 319.112,81.540 316.288 C 78.723 313.465,76.329 311.155,76.221 311.155 C 76.112 311.155,78.328 313.465,81.145 316.288 M281.673 315.893 C 281.673 317.522,281.742 318.189,281.828 317.374 C 281.913 316.560,281.913 315.227,281.828 314.413 C 281.742 313.598,281.673 314.265,281.673 315.893 M87.660 322.335 C 87.660 322.403,88.238 322.980,88.944 323.618 L 90.227 324.778 89.067 323.495 C 87.986 322.298,87.660 322.030,87.660 322.335 M280.750 327.073 C 280.750 327.141,281.328 327.719,282.034 328.357 L 283.317 329.516 282.157 328.233 C 281.076 327.037,280.750 326.768,280.750 327.073 M285.884 334.835 C 285.884 335.045,285.617 335.115,285.291 334.990 C 284.965 334.865,284.699 334.851,284.699 334.960 C 284.699 335.479,285.880 335.524,286.298 335.021 C 286.633 334.618,286.641 334.452,286.327 334.452 C 286.083 334.452,285.884 334.624,285.884 334.835 M248.075 343.017 C 248.455 343.116,249.077 343.116,249.457 343.017 C 249.837 342.917,249.526 342.836,248.766 342.836 C 248.006 342.836,247.695 342.917,248.075 343.017 M220.440 343.423 C 221.040 343.513,221.928 343.511,222.414 343.417 C 222.900 343.323,222.409 343.249,221.323 343.252 C 220.237 343.255,219.840 343.332,220.440 343.423 M242.947 343.423 C 243.547 343.513,244.436 343.511,244.922 343.417 C 245.407 343.323,244.916 343.249,243.830 343.252 C 242.744 343.255,242.347 343.332,242.947 343.423 M229.319 343.828 C 231.111 343.901,234.042 343.901,235.834 343.828 C 237.626 343.755,236.160 343.695,232.577 343.695 C 228.993 343.695,227.527 343.755,229.319 343.828 M183.124 364.346 C 183.615 364.441,184.326 364.437,184.704 364.338 C 185.081 364.240,184.679 364.162,183.810 364.167 C 182.942 364.171,182.633 364.252,183.124 364.346 M212.142 364.339 C 212.522 364.439,213.144 364.439,213.524 364.339 C 213.904 364.240,213.593 364.159,212.833 364.159 C 212.073 364.159,211.762 364.240,212.142 364.339 M188.655 364.748 C 189.364 364.836,190.431 364.834,191.024 364.744 C 191.617 364.654,191.037 364.582,189.733 364.584 C 188.430 364.587,187.945 364.660,188.655 364.748 M206.029 364.748 C 206.739 364.836,207.805 364.834,208.398 364.744 C 208.991 364.654,208.411 364.582,207.108 364.584 C 205.805 364.587,205.319 364.660,206.029 364.748 "
            stroke="none" fill="#e79498" fill-rule="evenodd"></path>
        <path id="path2"
            d="M187.759 35.576 C 52.921 44.629,-14.520 202.365,72.092 306.106 C 125.580 370.172,226.593 384.292,284.896 335.852 L 286.081 334.867 282.628 336.016 C 184.897 368.527,81.785 299.529,82.016 201.777 C 82.289 86.421,223.000 17.731,322.804 84.233 C 327.065 87.073,326.339 86.141,320.237 80.937 C 283.462 49.576,233.588 32.499,187.759 35.576 "
            stroke="none" fill="#fc0404" fill-rule="evenodd"></path>
        <path id="path3"
            d="M347.977 126.555 C 347.982 127.423,348.062 127.732,348.157 127.241 C 348.251 126.750,348.248 126.039,348.149 125.662 C 348.050 125.284,347.973 125.686,347.977 126.555 M347.985 132.280 C 347.985 133.258,348.062 133.657,348.156 133.169 C 348.250 132.680,348.250 131.881,348.156 131.392 C 348.062 130.903,347.985 131.303,347.985 132.280 M190.763 194.801 C 193.197 196.518,193.698 198.144,193.154 202.567 C 192.032 211.696,194.767 217.328,203.356 223.577 L 205.133 224.870 203.238 222.701 C 199.413 218.326,197.043 211.672,197.980 207.939 C 198.949 204.078,204.298 202.553,206.089 205.627 C 206.853 206.939,206.549 205.256,205.708 203.518 C 204.685 201.404,202.906 200.491,200.151 200.664 L 198.164 200.790 197.622 199.233 C 196.506 196.031,194.569 194.444,191.279 194.037 L 189.339 193.796 190.763 194.801 M199.233 195.152 C 198.420 196.312,198.457 196.878,199.408 197.828 C 200.897 199.317,202.962 198.429,202.962 196.300 C 202.962 194.211,200.436 193.434,199.233 195.152 M220.839 195.101 C 219.097 195.963,217.987 197.419,217.204 199.871 L 216.741 201.321 214.662 201.106 C 211.440 200.774,209.382 202.144,208.653 205.107 L 208.368 206.265 209.288 205.407 C 212.566 202.353,217.189 205.362,217.168 210.537 C 217.154 214.205,215.058 218.881,211.366 223.483 C 210.448 224.626,210.794 224.447,213.454 222.402 C 220.116 217.279,221.718 213.816,221.718 204.541 C 221.718 197.451,221.829 196.996,223.986 195.297 L 225.271 194.283 223.889 194.279 C 223.129 194.277,221.757 194.647,220.839 195.101 M212.263 195.567 C 210.969 197.543,213.091 199.711,215.058 198.422 C 216.082 197.751,216.334 195.959,215.518 195.143 C 214.718 194.343,212.911 194.578,212.263 195.567 M172.995 217.688 C 172.096 222.846,173.347 225.641,178.066 229.023 L 178.892 229.615 178.094 231.692 C 176.661 235.420,177.130 238.303,179.530 240.524 C 181.515 242.361,183.629 243.159,182.046 241.474 C 179.877 239.166,180.786 234.987,183.934 232.791 C 188.978 229.271,197.697 233.992,203.593 243.435 C 206.030 247.339,206.028 247.096,203.566 240.588 C 199.318 229.358,191.519 223.144,181.624 223.107 C 178.002 223.093,175.428 221.033,174.155 217.129 L 173.463 215.005 172.995 217.688 M241.264 216.521 C 241.264 220.318,237.308 223.487,232.561 223.492 C 225.939 223.501,217.797 228.613,214.320 234.946 C 213.117 237.138,209.674 245.829,209.674 246.675 C 209.674 246.829,210.591 245.453,211.712 243.616 C 215.752 236.998,222.548 231.787,227.140 231.787 C 232.962 231.787,236.470 237.663,233.064 241.711 L 232.040 242.928 234.044 241.913 C 237.684 240.068,238.863 236.679,237.354 232.393 C 236.316 229.443,236.307 229.550,237.635 228.864 C 241.022 227.112,242.650 223.830,242.361 219.331 C 242.176 216.445,241.264 214.109,241.264 216.521 M167.788 227.808 C 165.344 230.251,166.823 234.156,170.192 234.156 C 172.015 234.156,173.589 232.984,173.946 231.361 C 174.752 227.688,170.412 225.184,167.788 227.808 M242.984 227.045 C 239.437 228.477,240.743 234.156,244.620 234.156 C 245.688 234.156,246.362 233.856,247.217 233.002 C 250.214 230.005,246.968 225.437,242.984 227.045 "
            stroke="none" fill="#945359" fill-rule="evenodd"></path>
    </g>
</svg>